<?xml version="1.0" encoding="UTF-8" standalone="no"?>
<svg
   xmlns:dc="http://purl.org/dc/elements/1.1/"
   xmlns:cc="http://creativecommons.org/ns#"
   xmlns:rdf="http://www.w3.org/1999/02/22-rdf-syntax-ns#"
   xmlns:svg="http://www.w3.org/2000/svg"
   xmlns="http://www.w3.org/2000/svg"
   xmlns:sodipodi="http://sodipodi.sourceforge.net/DTD/sodipodi-0.dtd"
   xmlns:inkscape="http://www.inkscape.org/namespaces/inkscape"
   width="736.29352"
   height="752.61353"
   viewBox="0 0 194.811 199.129"
   version="1.1"
   id="svg8"
   inkscape:version="1.0.1 (3bc2e813f5, 2020-09-07)"
   sodipodi:docname="owi.svg">
  <defs
     id="defs2" />
  <sodipodi:namedview
     id="base"
     pagecolor="#ffffff"
     bordercolor="#666666"
     borderopacity="1.0"
     inkscape:pageopacity="0.0"
     inkscape:pageshadow="2"
     inkscape:zoom="1.0988389"
     inkscape:cx="368.14731"
     inkscape:cy="376.30628"
     inkscape:document-units="mm"
     inkscape:current-layer="layer1"
     inkscape:document-rotation="0"
     showgrid="false"
     inkscape:window-width="1920"
     inkscape:window-height="1017"
     inkscape:window-x="-8"
     inkscape:window-y="-8"
     inkscape:window-maximized="1"
     units="px" />
  <metadata
     id="metadata5">
    <rdf:RDF>
      <cc:Work
         rdf:about="">
        <dc:format>image/svg+xml</dc:format>
        <dc:type
           rdf:resource="http://purl.org/dc/dcmitype/StillImage" />
        <dc:title></dc:title>
      </cc:Work>
    </rdf:RDF>
  </metadata>
  <g
     inkscape:label="Layer 1"
     inkscape:groupmode="layer"
     id="layer1">
    <g
       id="g68"
       transform="translate(-0.00661345,-0.7320289)">
      <path
         style="fill:#000000;stroke:none;stroke-width:1.77101px;stroke-linecap:butt;stroke-linejoin:miter;stroke-opacity:1"
         d="m 0.00661345,34.461049 c 0.632544,-10.120039 0.316272,-18.34263 0.948768,-20.556405 C 1.5878605,11.690937 3.8016425,8.5284311 6.6479085,5.6821191 c 2.846281,-2.846262 5.3762945,-4.427481 7.2738065,-4.427481 1.897517,0 2.846266,1.897497 6.641293,2.213708 3.795009,0.315929 5.060025,0 6.957542,0 1.897511,0 1.897511,0.948748 5.060023,-0.315947 3.162532,-1.265009 8.538806,-2.21375701 11.701325,-2.21375701 3.162525,0 3.162525,-0.632554 7.590058,0.31592901 4.427518,0.948749 8.222562,1.897497 8.222562,1.897497 l 10.436299,4.427482 c 0,0 5.69254,5.3762799 7.27381,6.3250289 1.581236,0.948814 8.538787,6.641305 8.538787,9.171356 0,2.530034 3.47878,9.803828 2.84628,12.017586 -0.63254,2.213773 0,6.957516 -1.26503,9.171289 -1.26499,2.213774 -3.1625,10.4363 -3.1625,10.4363 0,0 -5.692544,9.803831 -6.008788,11.068851 -0.316278,1.264963 -7.590037,13.915101 -7.590037,13.915101 l -8.53882,12.650063 -8.5388,10.436315 -7.590058,3.47878 6.64129,-12.650145 5.692541,-12.966263 4.743775,-14.547638 3.795028,-8.855013 -0.316261,-8.85508 1.264993,-10.752576 -6.325046,0.316608 -2.530001,1.58122 -8.222548,1.897563 -3.162526,-0.31593 -1.897517,3.794994 -3.795008,3.162522 -4.111281,0.31593 h -4.743758 l -2.530029,-0.31593 -2.846265,-3.478733 -2.213765,-1.581286 -6.00879,0.948748 -3.795015,2.213775 -3.795029,1.265008 c 0,0 -2.213764,-1.265008 -4.1112735,-0.948748 -1.897519,0.315947 -3.795029,2.846246 -3.795029,2.846246 l -2.530014,0.632553 6.957538,-9.171356 4.1112805,-5.06002 6.641289,-1.897497 4.743777,-2.530034 4.111282,-0.315946 7.590059,-0.948749 h 6.957538 l 6.64129,-1.264943 5.060029,-1.581302 c 0,0 4.427521,-0.948749 5.692547,-1.26501 1.264992,-0.315946 2.530001,-0.948765 2.530001,-0.948765 l -6.641289,-1.897496 -3.47877,-4.111255 -4.427532,-2.530051 -6.008771,-2.213773 h -8.855059 l -5.060043,2.530051 -6.641296,2.846245 -8.855052,4.743809 -6.6412945,5.060019 z"
         id="path38" />
      <path
         style="fill:#000000;stroke:none;stroke-width:1.77101px;stroke-linecap:butt;stroke-linejoin:miter;stroke-opacity:1"
         d="m 116.38734,21.178504 c 4.42754,-4.427548 6.00882,-8.538819 8.22257,-8.855079 2.21378,-0.316608 11.06882,-6.0087669 11.06882,-6.0087669 0,0 6.95755,-4.427549 9.17131,-4.427549 2.21377,0 5.69252,-1.26500801 8.85507,-0.632538 3.16249,0.632538 9.8038,1.581221 9.8038,1.581221 0,0 15.18009,2.213774 16.4451,2.213774 1.26501,0 7.59006,2.213773 9.48755,2.213773 1.89753,0 4.7438,4.1112709 4.7438,4.1112709 l 0.31626,6.957516 0.31628,7.273843 -0.63254,7.589988 c 0,0 -2.53002,0.632554 -4.7438,0.948749 -2.21376,0.315947 -2.84624,1.897563 -4.42751,0.315947 -1.58127,-1.581237 -3.79503,-4.427549 -3.79503,-4.427549 l -0.63248,-6.325028 c 0,0 -1.89752,-4.111271 -3.79503,-4.111271 -1.8975,0 -3.79501,-1.897497 -7.2738,-1.897497 -3.47876,0 -6.32504,-1.897497 -9.17131,-1.897497 -2.84626,0 -6.32502,0 -7.59004,0.632537 -1.265,0.632554 -2.84627,0.632554 -6.00878,2.213774 -3.16253,1.581286 -4.74378,1.265026 -6.6413,2.213775 -1.89752,0.948748 -4.74377,3.162521 -4.74377,3.162521 0,0 -2.21376,2.846247 -5.06004,3.795061 -2.84627,0.948748 -0.31627,3.16244 0.94877,3.16244 1.26498,0 6.64129,0.948748 8.85504,0.948748 2.21377,0 10.12006,-1.264942 10.12006,-1.264942 h 14.54759 l 6.32506,0.632537 c 0,0 5.37628,1.581303 5.69252,4.11127 0.31627,2.530036 3.47878,6.641307 3.47878,7.906332 0,1.265026 3.16251,8.222525 3.16251,8.222525 l -6.64129,-0.632537 -3.79501,-1.897564 -4.74378,-4.743742 -4.74379,-1.265026 -5.69252,-0.632537 -2.84628,1.897496 -1.26501,2.846247 -3.47878,0.315929 h -4.74378 l -3.79503,-3.478783 -3.47877,-1.265026 h -5.69254 l -3.1625,1.265026 -5.3763,-1.265026 -4.11127,-5.060019 -0.63253,-6.641305 -0.63247,-5.06002 z"
         id="path40" />
      <path
         style="fill:#000000;stroke:none;stroke-width:1.77101px;stroke-linecap:butt;stroke-linejoin:miter;stroke-opacity:1"
         d="m 45.230661,119.84913 c 3.795029,-2.84624 3.478763,-5.3763 6.325043,-5.3763 2.84626,0 7.590032,-1.58128 7.590032,-1.58128 l 11.385081,0.94874 8.538803,0.31593 11.385074,1.26503 8.53879,0.63254 5.060036,2.84631 -0.63247,4.74374 -1.58127,2.21377 -4.743776,-0.31592 c 0,0 -1.89752,-3.16259 -3.16253,-3.16259 -1.265,0 -6.00878,0.94881 -6.00878,0.94881 l -9.803807,1.58122 -11.068819,2.21378 -5.376298,1.58121 c 0,0 -6.641283,1.89759 -7.906284,2.21378 -1.265014,0.31595 -8.222553,0.31595 -8.222553,0.31595 0,0 -2.846267,0.3166 -4.427534,0 -1.581259,-0.31595 -3.162512,-1.26504 -3.162512,-1.26504 l 3.795015,-7.27379 z"
         id="path42" />
      <path
         style="fill:#000000;stroke:none;stroke-width:1.77101px;stroke-linecap:butt;stroke-linejoin:miter;stroke-opacity:1"
         d="m 69.265808,157.79935 c 1.265009,0 5.692541,-1.58124 6.957549,-1.58124 1.264993,0 6.325047,-1.58129 7.590037,-1.89756 1.26503,-0.31593 9.48757,-1.8975 7.90631,-0.31593 -1.58126,1.58122 6.64129,6.00877 6.64129,6.00877 l 5.692526,2.53003 6.95757,0.31594 5.69252,0.31594 v 5.69256 l -0.94875,6.32504 -1.26503,3.79499 c 0,0 -2.52999,-0.31595 -4.11127,-0.31595 -1.58124,0 -13.598836,-2.84631 -13.598836,-2.84631 l -14.54757,-2.53003 -13.598851,-0.31595 -11.38508,0.63256 c 0,0 -6.641288,1.26501 -8.222533,1.26501 -1.581267,0 -6.641289,3.79507 -6.641289,3.79507 l -1.581267,4.11126 v 4.42755 l 5.692527,3.16245 6.325043,1.89756 6.957536,0.31593 15.812613,-0.63253 7.273801,-0.94875 -1.89753,3.1625 -3.478774,2.53005 -11.06882,3.16246 H 54.085719 l -9.803821,-0.31595 -5.06003,-1.89749 -5.376275,-5.37628 -7.590057,-7.90634 -5.060029,-5.37629 1.265014,-5.06002 2.846267,-4.74381 7.906289,-4.42753 6.957554,-4.1112 6.32503,-5.69256 2.846281,-1.8975 10.752576,2.21369 5.060019,0.94882 z"
         id="path44" />
    </g>
  </g>
</svg>
